PathFileType	4	(X/Y/Z)	/Users/itak/Documents/Research/Walk-IL/dataset/trc/00052_00006.trc
DataRate	CameraRate	NumFrames	NumMarkers	Units	OrigDataRate	OrigDataStartFrame	OrigNumFrames
100.000000	100.000000	4	53	mm	100.000000	66	530
Frame#	Time	RPSI			LPSI			L3			STRN			T10			C7			CLAV			RBAK			LBAK			LSHO			LUPA			LAEL			LAOL			LWTS			LWPS			LFRA			LIFD			LHPS			LHTS			RSHO			RUPA			RAEL			RAOL			RWTS			RWPS			RFRA			RIFD			RHTS			RHPS			RBHD			LFHD			RFHD			LBHD			LHIP			RHIP			RASI			LASI			LKNE			LTHI			LANK			LTIP			LTOE			LMT1			LMT5			LHEE			RKNE			RTHI			RANK			RTIP			RTOE			RMT1			RMT5			RHEE			
		X1	Y1	Z1	X2	Y2	Z2	X3	Y3	Z3	X4	Y4	Z4	X5	Y5	Z5	X6	Y6	Z6	X7	Y7	Z7	X8	Y8	Z8	X9	Y9	Z9	X10	Y10	Z10	X11	Y11	Z11	X12	Y12	Z12	X13	Y13	Z13	X14	Y14	Z14	X15	Y15	Z15	X16	Y16	Z16	X17	Y17	Z17	X18	Y18	Z18	X19	Y19	Z19	X20	Y20	Z20	X21	Y21	Z21	X22	Y22	Z22	X23	Y23	Z23	X24	Y24	Z24	X25	Y25	Z25	X26	Y26	Z26	X27	Y27	Z27	X28	Y28	Z28	X29	Y29	Z29	X30	Y30	Z30	X31	Y31	Z31	X32	Y32	Z32	X33	Y33	Z33	X34	Y34	Z34	X35	Y35	Z35	X36	Y36	Z36	X37	Y37	Z37	X38	Y38	Z38	X39	Y39	Z39	X40	Y40	Z40	X41	Y41	Z41	X42	Y42	Z42	X43	Y43	Z43	X44	Y44	Z44	X45	Y45	Z45	X46	Y46	Z46	X47	Y47	Z47	X48	Y48	Z48	X49	Y49	Z49	X50	Y50	Z50	X51	Y51	Z51	X52	Y52	Z52	X53	Y53	Z53	

67	0.66	922.1510620117188	1028.098266601562	-193.3716583251953	903.0907592773438	1021.723266601562	-369.41064453125	918.3934326171875	1075.542602539062	-288.983154296875	1159.17822265625	1272.310791015625	-296.9520874023438	893.5852661132812	1208.322143554688	-296.5636291503906	949.3560791015625	1476.138549804688	-303.6993713378906	1129.176635742188	1386.565673828125	-300.5152587890625	887.2471313476562	1337.83251953125	-226.3423004150391	927.937255859375	1437.062744140625	-404.7533874511719	1033.368774414062	1439.957275390625	-476.2405395507812	1022.358276367188	1309.319946289062	-549.9635009765625	1053.617919921875	1092.477783203125	-554.4761962890625	985.5596313476562	1080.820922851562	-474.4110412597656	1144.304077148438	859.5420532226562	-468.314697265625	1093.408081054688	843.8856201171875	-533.5087890625	1077.989135742188	984.030029296875	-553.3527221679688	1162.30322265625	674.7749633789062	-439.3108825683594	1127.328002929688	764.0355224609375	-520.6500244140625	1168.17236328125	777.5538330078125	-463.4812927246094	1015.265991210938	1440.022216796875	-125.6227493286133	1006.043151855469	1370.345336914062	-61.42720794677734	991.7197265625	1099.5	-44.34046173095703	1003.682922363281	1082.913818359375	-140.783935546875	1131.2880859375	850.256591796875	-96.33706665039062	1065.268432617188	834.6837768554688	-41.38446044921875	1007.039672851562	1021.63330078125	-41.47001647949219	1138.22705078125	661.14208984375	-114.7807388305664	1153.903564453125	748.0782470703125	-99.57190704345703	1102.591430664062	744.18359375	-42.51659393310547	990.1931762695312	1654.419677734375	-368.9595031738281	1152.05224609375	1687.667602539062	-229.26416015625	1164.108764648438	1692.669067382812	-354.3603210449219	986.0626831054688	1642.13916015625	-232.3023986816406	1005.360534667969	952.7953491210938	-462.0496215820312	991.6710815429688	954.336181640625	-120.1296920776367	1115.387573242188	965.664794921875	-147.4018402099609	1117.965209960938	958.5943603515625	-415.7232971191406	1042.4599609375	487.1760559082031	-419.3404846191406	1022.167846679688	630.0106201171875	-456.9756774902344	950.1804809570312	38.20021820068359	-439.7288513183594	987.2937622070312	255.7962951660156	-444.5320129394531	1156.023681640625	31.7252140045166	-431.7503356933594	1105.953491210938	32.92461395263672	-378.4759521484375	1053.435668945312	28.26617240905762	-477.42333984375	897.575927734375	35.86473846435547	-364.7866821289062	1039.974731445312	506.2657775878906	-139.3978424072266	1064.798461914062	776.736328125	-110.4197006225586	941.2430419921875	36.0882682800293	-139.0410766601562	1012.154907226562	387.6946105957031	-132.6148071289062	1158.67041015625	28.91366386413574	-167.0986480712891	1098.618408203125	34.12859344482422	-209.6336822509766	1065.173828125	36.61754608154297	-118.8274383544922	895.2537841796875	36.88741302490234	-196.5792388916016	
68	0.67	922.251220703125	1028.10546875	-193.3648223876953	903.1824951171875	1021.708374023438	-369.4688415527344	918.5119018554688	1075.56591796875	-288.9973754882812	1159.258056640625	1272.2470703125	-296.8914794921875	893.7234497070312	1208.353515625	-296.5823059082031	949.5769653320312	1476.150024414062	-303.6665649414062	1129.324340820312	1386.5556640625	-300.4614868164062	887.3162231445312	1337.873413085938	-226.3606719970703	928.1185913085938	1437.095825195312	-404.7311096191406	1033.59765625	1439.936401367188	-476.2310180664062	1022.362060546875	1309.327514648438	-549.987548828125	1053.265502929688	1092.494384765625	-554.652099609375	985.4987182617188	1080.875122070312	-474.4597473144531	1143.279052734375	859.0685424804688	-469.1524658203125	1092.251586914062	843.7461547851562	-534.3197631835938	1077.283325195312	983.9296264648438	-553.7399291992188	1160.511962890625	674.0848388671875	-440.6402282714844	1125.91748046875	763.6990966796875	-521.71044921875	1166.823486328125	776.9584350585938	-464.5681457519531	1015.443298339844	1440.004028320312	-125.5865097045898	1006.064636230469	1370.365966796875	-61.42707061767578	991.3414306640625	1099.587646484375	-44.25349044799805	1003.569396972656	1082.880737304688	-140.6837158203125	1130.341186523438	849.841552734375	-95.47491455078125	1064.246459960938	834.6692504882812	-40.57963562011719	1006.591735839844	1021.788879394531	-41.21280670166016	1136.613403320312	660.7174072265625	-113.4545059204102	1152.625854492188	747.6354370117188	-98.48060607910156	1101.19091796875	744.0267944335938	-41.49805450439453	990.332275390625	1654.400756835938	-368.9725036621094	1152.241333007812	1687.725341796875	-229.3304290771484	1164.284545898438	1692.661987304688	-354.3426208496094	986.2758178710938	1642.139282226562	-232.3137054443359	1005.392211914062	952.790771484375	-462.0481872558594	992.087890625	954.2800903320312	-120.0488357543945	1115.449096679688	965.6502075195312	-147.3054809570312	1118.074951171875	958.5296020507812	-415.6458129882812	1042.577514648438	487.1783752441406	-419.2957153320312	1022.471862792969	629.8971557617188	-456.9414978027344	950.1837158203125	38.20966720581055	-439.7201843261719	987.3245849609375	255.7965545654297	-444.5219421386719	1156.037231445312	31.73582077026367	-431.7269287109375	1105.9638671875	32.90973281860352	-378.4760437011719	1053.442138671875	28.26712226867676	-477.42041015625	897.5834350585938	35.87176513671875	-364.784912109375	1040.017333984375	506.2647094726562	-139.3783569335938	1064.87841796875	776.690673828125	-110.4211883544922	941.2554931640625	36.08696746826172	-139.0512237548828	1012.182189941406	387.690673828125	-132.6107788085938	1158.680786132812	28.92030143737793	-167.0958557128906	1098.621948242188	34.13297271728516	-209.6381225585938	1065.177490234375	36.60593795776367	-118.8274230957031	895.254150390625	36.89291381835938	-196.5812072753906	
69	0.68	922.3596801757812	1028.116455078125	-193.3587036132812	903.2550659179688	1021.6982421875	-369.52197265625	918.6111450195312	1075.586303710938	-289.0109558105469	1159.330078125	1272.187133789062	-296.8331909179688	893.8670654296875	1208.382934570312	-296.59130859375	949.7864379882812	1476.159301757812	-303.6266174316406	1129.464477539062	1386.547607421875	-300.4134216308594	887.3899536132812	1337.911376953125	-226.3719329833984	928.2906494140625	1437.130493164062	-404.7082214355469	1033.809204101562	1439.914916992188	-476.2200927734375	1022.3662109375	1309.33984375	-550.0086059570312	1052.92578125	1092.52880859375	-554.8421020507812	985.4395751953125	1080.928100585938	-474.5146179199219	1142.314086914062	858.6201171875	-470.0758972167969	1091.133911132812	843.612548828125	-535.1942749023438	1076.601806640625	983.8502807617188	-554.1630859375	1158.799072265625	673.3838500976562	-442.0761413574219	1124.559692382812	763.38671875	-522.859375	1165.54833984375	776.4124145507812	-465.7691040039062	1015.603515625	1439.995727539062	-125.5549240112305	1006.084045410156	1370.393432617188	-61.42234420776367	991.0188598632812	1099.682495117188	-44.13935089111328	1003.453491210938	1082.8486328125	-140.5742034912109	1129.4482421875	849.4629516601562	-94.59762573242188	1063.271606445312	834.6699829101562	-39.77589416503906	1006.139099121094	1021.948181152344	-40.95901107788086	1135.117919921875	660.3173828125	-112.1106109619141	1151.41943359375	747.2137451171875	-97.35654449462891	1099.870971679688	743.9007568359375	-40.47187805175781	990.4759521484375	1654.3955078125	-368.9889831542969	1152.435791015625	1687.767822265625	-229.3810424804688	1164.45751953125	1692.63818359375	-354.3052062988281	986.467529296875	1642.144165039062	-232.3197631835938	1005.432983398438	952.7870483398438	-462.0448913574219	992.5143432617188	954.2312622070312	-119.9739074707031	1115.516967773438	965.6336059570312	-147.2018737792969	1118.203735351562	958.4910888671875	-415.5901489257812	1042.696899414062	487.1705932617188	-419.2431335449219	1022.751892089844	629.8108520507812	-456.9330749511719	950.1871337890625	38.21699142456055	-439.7126159667969	987.3591918945312	255.7971038818359	-444.5151977539062	1156.05078125	31.74385452270508	-431.7055969238281	1105.974243164062	32.89573669433594	-378.4739990234375	1053.447875976562	28.27078819274902	-477.4115295410156	897.5896606445312	35.87743759155273	-364.7826232910156	1040.057006835938	506.2660522460938	-139.3582916259766	1064.955322265625	776.6464233398438	-110.4167633056641	941.2695922851562	36.08609771728516	-139.0607299804688	1012.206359863281	387.6862487792969	-132.6114959716797	1158.690673828125	28.92519378662109	-167.0924224853516	1098.624755859375	34.13586044311523	-209.6419982910156	1065.181396484375	36.59477996826172	-118.827507019043	895.2553100585938	36.89607238769531	-196.5805816650391	
70	0.6900000000000001	922.4757080078125	1028.129760742188	-193.3531188964844	903.3069458007812	1021.695678710938	-369.5669250488281	918.6965942382812	1075.602905273438	-289.0238952636719	1159.397705078125	1272.135131835938	-296.7813720703125	894.0015258789062	1208.406616210938	-296.5909423828125	949.978271484375	1476.16650390625	-303.5826110839844	1129.594604492188	1386.539306640625	-300.3689880371094	887.4672241210938	1337.945190429688	-226.3760070800781	928.4495849609375	1437.163330078125	-404.6844482421875	1033.995483398438	1439.892578125	-476.2070617675781	1022.371337890625	1309.357299804688	-550.027099609375	1052.602416992188	1092.579223632812	-555.0435180664062	985.3653564453125	1080.975952148438	-474.5814208984375	1141.409790039062	858.190673828125	-471.0758666992188	1090.064208984375	843.4896240234375	-536.1319580078125	1075.953979492188	983.8013305664062	-554.6268310546875	1157.179077148438	672.6973876953125	-443.6218566894531	1123.258422851562	763.1058349609375	-524.0950927734375	1164.347290039062	775.9048461914062	-467.0707092285156	1015.747314453125	1439.997924804688	-125.5261917114258	1006.1015625	1370.427368164062	-61.41298294067383	990.7542724609375	1099.784301757812	-43.99731063842773	1003.336120605469	1082.817749023438	-140.4532623291016	1128.610473632812	849.123046875	-93.71338653564453	1062.342163085938	834.6846313476562	-38.9791145324707	1005.694274902344	1022.10888671875	-40.70132827758789	1133.747802734375	659.9385986328125	-110.7634506225586	1150.288330078125	746.8128662109375	-96.20428466796875	1098.6376953125	743.8068237304688	-39.44038772583008	990.62255859375	1654.403442382812	-369.0055236816406	1152.631958007812	1687.791870117188	-229.4118194580078	1164.624755859375	1692.599609375	-354.2515869140625	986.6339111328125	1642.154418945312	-232.3202209472656	1005.466613769531	952.7848510742188	-462.0420532226562	992.904541015625	954.1942749023438	-119.9110336303711	1115.591552734375	965.6179809570312	-147.095947265625	1118.354736328125	958.48828125	-415.5634460449219	1042.81787109375	487.1560974121094	-419.1850280761719	1022.981384277344	629.7723999023438	-456.9544067382812	950.1904907226562	38.2227668762207	-439.7068786621094	987.3965454101562	255.7976684570312	-444.5120544433594	1156.063598632812	31.74844741821289	-431.6878051757812	1105.983642578125	32.88242721557617	-378.4692077636719	1053.453369140625	28.27726745605469	-477.3975524902344	897.5941162109375	35.88139343261719	-364.7799987792969	1040.09130859375	506.26953125	-139.3375091552734	1065.025634765625	776.6056518554688	-110.405632019043	941.283447265625	36.08579254150391	-139.0672912597656	1012.224792480469	387.6810302734375	-132.6167602539062	1158.698608398438	28.92855644226074	-167.0894165039062	1098.626586914062	34.13682556152344	-209.6448974609375	1065.18505859375	36.58491897583008	-118.8269424438477	895.2568359375	36.8968505859375	-196.5774993896484	
